<svg version="1.1" id="Layer_1" xmlns="http://www.w3.org/2000/svg" xmlns:xlink="http://www.w3.org/1999/xlink" x="0px" y="0px" viewBox="0 0 27.178 26" style="enable-background:new 0 0 27.178 26;" xml:space="preserve">
<g id="file-switch-7_1_">
	<polygon points="14.589,26 26.589,26 26.589,15 23.589,12 14.589,12 	" id="id_103" style="fill: rgb(255, 255, 255);"></polygon>
	<polygon points="3.589,18.008 3.589,25 12.589,25 12.589,24 4.589,24 4.589,18.006 7.446,21.08 8.179,20.398 4.09,16 0,20.398 
		0.732,21.08 	" id="id_104" style="fill: rgb(255, 255, 255);"></polygon>
	<polygon points="14.589,1 14.589,2 22.589,2.001 22.589,7.994 19.731,4.92 18.999,5.602 23.088,10 27.178,5.602 26.445,4.92 
		23.589,7.992 23.589,1.001 	" id="id_105" style="fill: rgb(255, 255, 255);"></polygon>
	<polygon points="0.589,14 12.589,14 12.589,3 9.589,0 0.589,0 	" id="id_106" style="fill: rgb(255, 255, 255);"></polygon>
</g>
</svg>